<?xml version="1.0" encoding="UTF-8"?>
<svg id="Layer_1" xmlns="http://www.w3.org/2000/svg" xmlns:x="http://ns.adobe.com/Extensibility/1.0/" version="1.1" viewBox="0 0 225.7 225.7">
  <!-- Generator: Adobe Illustrator 29.8.1, SVG Export Plug-In . SVG Version: 2.1.1 Build 2)  -->
  <defs>
    <style>
      .st0 {
        fill: #be0a26;
        stroke: #be0a26;
      }

      .st0, .st1 {
        stroke-miterlimit: 10;
        stroke-width: 1.03px;
      }

      .st1 {
        stroke: #000;
      }
    </style>
  </defs>
  <g id="Ebene_2">
    <g>
      <path class="st1" d="M54.19,61.47c-1.29-1.09-3.72-1.64-7.27-1.64h-8.56v12.85h8.22c.89,0,2.61-.29,5.16-.86,1.29-.26,2.34-.92,3.16-1.98.82-1.06,1.23-2.29,1.23-3.67,0-2.04-.65-3.61-1.94-4.7Z"/>
      <path class="st1" d="M.18.52v224.67h224.67V.52H.18ZM80.23,178.55h-13.74v-37.86l-10.59,37.86h-12.44l-10.57-37.86v37.86h-13.74v-62.76h22.06l8.51,38.19,8.45-38.19h22.05v62.76ZM58.8,110.29l-10.42-19.32c-1.32-2.5-2.5-4.12-3.53-4.87-1.41-.98-3-1.47-4.78-1.47h-1.72v25.66h-19.57v-63.22h32.48c6.02,0,10.63.52,13.81,1.55,3.18,1.04,5.75,2.95,7.7,5.76,1.95,2.8,2.93,6.22,2.93,10.24,0,3.51-.75,6.53-2.24,9.08-1.49,2.54-3.54,4.61-6.15,6.19-1.67,1.01-3.95,1.84-6.85,2.5,2.32.78,4.01,1.55,5.07,2.33.72.52,1.76,1.63,3.12,3.32,1.36,1.7,2.27,3.01,2.73,3.93l9.44,18.32h-22.02ZM135.56,169.13c-2.27,3.14-5.08,5.51-8.44,7.11-3.36,1.6-7.64,2.4-12.84,2.4-6.3,0-11.45-.97-15.44-2.92-3.99-1.95-7.44-5.38-10.34-10.28-2.9-4.91-4.35-11.18-4.35-18.84,0-10.2,2.55-18.04,7.65-23.52,5.1-5.48,12.32-8.22,21.65-8.22,7.3,0,13.05,1.57,17.23,4.71,4.18,3.14,7.28,7.97,9.31,14.47l-15.82,3.74c-.55-1.88-1.13-3.25-1.74-4.12-1-1.46-2.23-2.58-3.68-3.37-1.45-.78-3.07-1.18-4.86-1.18-4.06,0-7.17,1.74-9.33,5.21-1.64,2.58-2.45,6.63-2.45,12.14,0,6.84.98,11.52,2.93,14.06,1.95,2.54,4.69,3.8,8.23,3.8s6.02-1.02,7.77-3.07c1.75-2.05,3.03-5.02,3.82-8.92l15.7,5.05c-1.05,4.68-2.71,8.6-4.98,11.74ZM140.78,84.43c0,3.68-.59,7.15-1.75,10.42-1.17,3.27-3.01,6.12-5.5,8.57-2.5,2.45-5.12,4.16-7.86,5.16-3.81,1.38-8.39,2.08-13.73,2.08-3.09,0-6.46-.21-10.11-.64-3.65-.43-6.71-1.27-9.16-2.52-2.46-1.26-4.7-3.05-6.74-5.37-2.04-2.32-3.43-4.71-4.18-7.17-1.21-3.96-1.82-7.47-1.82-10.52v-37.09h19.58v37.97c0,3.39.96,6.05,2.88,7.96,1.92,1.91,4.58,2.86,7.99,2.86s6.03-.94,7.95-2.82c1.92-1.88,2.88-4.55,2.88-8v-37.97h19.58v37.09ZM180.93,156.79h-13.28v13.54l.09,8.21h-22.75l.09-8.21v-46.04l-.09-8.21h33.24c13.28,0,26.74,4.11,26.74,20.18s-11.42,20.53-24.05,20.53ZM206.36,110.72h-19.07l-24.52-35.01v35.01h-19.03v-63.77h18.89l24.65,35.28v-35.28h19.07v63.77Z"/>
      <path class="st1" d="M175.17,130.5h-7.52v11.88h7.52c4.55,0,7.8-1.14,7.8-6.03s-3.34-5.85-7.8-5.85Z"/>
    </g>
    <g id="Red_bars">
      <rect id="Top_Red" class="st0" x="18.85" y="25.72" width="187.33" height="18"/>
      <rect id="Bottom_Red" class="st0" x="18.85" y="182.18" width="187.33" height="18"/>
    </g>
  </g>
</svg>